[URL=http://pix2links.com][img]http://www.pix2links.com/images/32403691141342252059.jpg[/img][/URL]

General
Complete name                    : E:\Young.Justice.S01E10.Targets.HDTV.XviD-2HD\young.justice.s01e10.targets.hdtv.xvid-2hd.avi
Format                           : AVI
Format/Info                      : Audio Video Interleave
File size                        : 175 MiB
Duration                         : 21mn 30s
Overall bit rate                 : 1 138 Kbps
Writing application              : MEncoder SVN-r32669-4.3.2
Writing library                  : MPlayer

Video
ID                               : 0
Format                           : MPEG-4 Visual
Format profile                   : Advanced Simple@L5
Format settings, BVOP            : 1
Format settings, QPel            : No
Format settings, GMC             : No warppoints
Format settings, Matrix          : Default (H.263)
Muxing mode                      : Packed bitstream
Codec ID                         : XVID
Codec ID/Hint                    : XviD
Duration                         : 21mn 30s
Bit rate                         : 996 Kbps
Width                            : 624 pixels
Height                           : 352 pixels
Display aspect ratio             : 16:9
Frame rate                       : 23.976 fps
Color space                      : YUV
Chroma subsampling               : 4:2:0
Bit depth                        : 8 bits
Scan type                        : Progressive
Compression mode                 : Lossy
Bits/(Pixel*Frame)               : 0.189
Stream size                      : 153 MiB (88%)
Writing library                  : XviD 1.2.1 (UTC 2008-12-04)

Audio
ID                               : 1
Format                           : MPEG Audio
Format version                   : Version 1
Format profile                   : Layer 3
Mode                             : Joint stereo
Mode extension                   : MS Stereo
Codec ID                         : 55
Codec ID/Hint                    : MP3
Duration                         : 21mn 30s
Bit rate mode                    : Variable
Bit rate                         : 128 Kbps
Channel(s)                       : 2 channels
Sampling rate                    : 48.0 KHz
Compression mode                 : Lossy
Stream size                      : 19.9 MiB (11%)
Alignment                        : Aligned on interleaves
Interleave, duration             : 24 ms (0.58 video frame)
Interleave, preload duration     : 505 ms




 [URL=http://pix2links.com][img]http://www.pix2links.com/images/43947090603942876734.png[/img][/URL]
        [URL=http://pix2links.com][img]http://www.pix2links.com/images/36377370997743061079.png[/img][/URL]
        [URL=http://pix2links.com][img]http://www.pix2links.com/images/87904163865580210609.png[/img][/URL]
        [URL=http://pix2links.com][img]http://www.pix2links.com/images/94934640916432211226.png[/img][/URL]
        [URL=http://pix2links.com][img]http://www.pix2links.com/images/09174615467443368892.png[/img][/URL]

Enjoy guysss :P